<svg width="30" height="30" viewBox="0 0 30 30" fill="none" xmlns="http://www.w3.org/2000/svg">
<path d="M4.5 15.375C4.49968 15.2058 4.53692 15.0387 4.60903 14.8857C4.68114 14.7326 4.78633 14.5975 4.917 14.49L9.336 10.08C9.54694 9.86934 9.83287 9.75101 10.131 9.75101C10.4291 9.75101 10.7151 9.86935 10.926 10.08C11.0302 10.1842 11.1129 10.3079 11.1693 10.4441C11.2257 10.5802 11.2548 10.7261 11.2548 10.8735C11.2548 11.0209 11.2257 11.1668 11.1693 11.303C11.1129 11.4391 11.0302 11.5628 10.926 11.667L8.349 14.25L24.375 14.25C24.6734 14.25 24.9595 14.3685 25.1705 14.5795C25.3815 14.7905 25.5 15.0767 25.5 15.375C25.5 15.6734 25.3815 15.9595 25.1705 16.1705C24.9595 16.3815 24.6734 16.5 24.375 16.5L8.334 16.5L10.9335 19.083C11.0379 19.1872 11.1208 19.311 11.1774 19.4473C11.2339 19.5836 11.263 19.7297 11.263 19.8773C11.263 20.0248 11.2339 20.1709 11.1774 20.3072C11.1208 20.4435 11.0379 20.5673 10.9335 20.6715C10.829 20.7761 10.705 20.859 10.5684 20.9156C10.4319 20.9722 10.2855 21.0013 10.1378 21.0013C9.98995 21.0013 9.8436 20.9722 9.70706 20.9156C9.57053 20.859 9.44647 20.7761 9.342 20.6715L4.83 16.1655C4.72469 16.0627 4.64119 15.9397 4.58449 15.8039C4.52779 15.6681 4.49906 15.5222 4.5 15.375Z" fill="#C9DCEC"/>
</svg>
