<svg width="30" height="30" viewBox="0 0 30 30" fill="none" xmlns="http://www.w3.org/2000/svg">
<path d="M25.5 15.375C25.5003 15.2058 25.4631 15.0387 25.391 14.8857C25.3189 14.7326 25.2137 14.5975 25.083 14.49L20.664 10.08C20.4531 9.86935 20.1671 9.75101 19.869 9.75101C19.5709 9.75101 19.2849 9.86935 19.074 10.08C18.9698 10.1842 18.8871 10.3079 18.8307 10.4441C18.7743 10.5802 18.7452 10.7261 18.7452 10.8735C18.7452 11.0209 18.7743 11.1668 18.8307 11.303C18.8871 11.4391 18.9698 11.5628 19.074 11.667L21.651 14.25L5.625 14.25C5.32663 14.25 5.04048 14.3685 4.8295 14.5795C4.61853 14.7905 4.5 15.0767 4.5 15.375C4.5 15.6734 4.61853 15.9595 4.8295 16.1705C5.04048 16.3815 5.32663 16.5 5.625 16.5L21.666 16.5L19.0665 19.083C18.9621 19.1872 18.8792 19.311 18.8226 19.4473C18.7661 19.5836 18.737 19.7297 18.737 19.8773C18.737 20.0248 18.7661 20.1709 18.8226 20.3072C18.8792 20.4435 18.9621 20.5673 19.0665 20.6715C19.171 20.7761 19.295 20.859 19.4316 20.9156C19.5681 20.9722 19.7145 21.0013 19.8622 21.0013C20.01 21.0013 20.1564 20.9722 20.2929 20.9156C20.4295 20.859 20.5535 20.7761 20.658 20.6715L25.17 16.1655C25.2753 16.0627 25.3588 15.9397 25.4155 15.8039C25.4722 15.6681 25.5009 15.5222 25.5 15.375Z" fill="#002B4E"/>
</svg>
